<?xml version="1.0" encoding="utf-8"?>
<!-- Generator: Adobe Illustrator 24.2.1, SVG Export Plug-In . SVG Version: 6.00 Build 0)  -->
<svg version="1.1" id="Layer_1" xmlns="http://www.w3.org/2000/svg" xmlns:xlink="http://www.w3.org/1999/xlink" x="0px" y="0px"
	 viewBox="0 0 63 63" style="enable-background:new 0 0 63 63;" xml:space="preserve">
<g>
	<path id="Icon_awesome-facebook-square_1_" d="M56.27,0.5H6.74C3.02,0.5,0,3.43,0,7.04c0,0,0,0,0,0v47.95
		c0,3.61,3.02,6.54,6.74,6.54l0,0H26V41.19h-9V31.5h9v-7.44c0-8.47,5.21-13.15,13.18-13.15c2.62,0.03,5.24,0.26,7.82,0.66v8.31h-4.8
		c-3.01-0.35-5.78,1.53-6.17,4.2c-0.05,0.36-0.06,0.72-0.03,1.08v6.35h10.62l-1.55,9.69H37V62.5h19.26c3.72,0,6.74-2.97,6.74-6.64
		l0,0V7.14C63,3.47,59.98,0.5,56.27,0.5L56.27,0.5L56.27,0.5z"/>
</g>
</svg>
