<?xml version="1.0" encoding="utf-8"?>
<!-- Generator: Adobe Illustrator 24.2.1, SVG Export Plug-In . SVG Version: 6.00 Build 0)  -->
<svg version="1.1" id="Layer_1" xmlns="http://www.w3.org/2000/svg" xmlns:xlink="http://www.w3.org/1999/xlink" x="0px" y="0px"
	 viewBox="0 0 63 63" style="enable-background:new 0 0 63 63;" xml:space="preserve">
<g>
	<path id="Icon_awesome-linkedin_1_" d="M58.5,0.5H4.49C1.99,0.52-0.01,2.52,0,4.98v53.05c-0.01,2.45,2,4.45,4.49,4.47H58.5
		c2.5-0.01,4.51-2.01,4.5-4.47V4.98C63.01,2.52,61,0.51,58.5,0.5z M18.99,53.64H10V24.12h9v29.52H18.99z M14.37,20.5
		c-2.99,0-5.41-2.39-5.41-5.33s2.42-5.33,5.41-5.33s5.41,2.39,5.41,5.33l0,0C19.78,18.12,17.36,20.5,14.37,20.5z M54,53.64H44v-13.9
		c0.7-3.44,0.63-7.85-4.15-7.85c-4.87,0-5.61,3.74-5.85,7.6v14.15h-9V24.12h9v4.92h0.13c1.82-2.96,5.18-4.73,8.77-4.6
		c9.37,0,11.11,5.91,11.11,13.58L54,53.64z"/>
</g>
</svg>
