<?xml version="1.0" encoding="utf-8"?>
<!-- Generator: Adobe Illustrator 24.2.1, SVG Export Plug-In . SVG Version: 6.00 Build 0)  -->
<svg version="1.1" id="Layer_1" xmlns="http://www.w3.org/2000/svg" xmlns:xlink="http://www.w3.org/1999/xlink" x="0px" y="0px"
	 viewBox="0 0 63 63" style="enable-background:new 0 0 63 63;" xml:space="preserve">
<g>
	<path id="Icon_awesome-twitter-square_1_" d="M56.25,0.5H6.75C3.02,0.5,0,3.47,0,7.14v48.71c0,3.67,3.02,6.64,6.75,6.64h49.5
		c3.73,0,6.75-2.97,6.75-6.64V7.14C63,3.47,59.98,0.5,56.25,0.5z M49.54,22.71c0.03,0.39,0.03,0.79,0.03,1.18
		c0.1,14.16-11.49,25.73-25.88,25.82c-0.12,0-0.24,0-0.36,0c-5.02,0.01-9.94-1.4-14.16-4.07c0.74,0.08,1.48,0.12,2.22,0.11
		c4.15,0.01,8.18-1.36,11.45-3.87c-3.94-0.07-7.41-2.6-8.62-6.3c1.38,0.23,2.8,0.18,4.16-0.17c-4.3-0.86-7.39-4.59-7.38-8.91v-0.11
		c1.28,0.7,2.7,1.1,4.16,1.15c-2.57-1.68-4.12-4.52-4.11-7.56c-0.01-1.61,0.43-3.2,1.26-4.59c4.68,5.67,11.59,9.13,19.01,9.49
		c-1.15-4.89,1.94-9.78,6.91-10.92c3.21-0.73,6.57,0.27,8.82,2.63c2.06-0.39,4.04-1.13,5.85-2.19c-0.69,2.09-2.13,3.87-4.05,5
		c1.83-0.21,3.63-0.68,5.32-1.42C52.92,19.82,51.35,21.41,49.54,22.71z"/>
</g>
</svg>
