<?xml version="1.0" encoding="utf-8"?>
<!-- Generator: Adobe Illustrator 24.0.2, SVG Export Plug-In . SVG Version: 6.00 Build 0)  -->
<svg version="1.1" xmlns="http://www.w3.org/2000/svg" xmlns:xlink="http://www.w3.org/1999/xlink" x="0px" y="0px"
	 viewBox="0 0 225 225" style="enable-background:new 0 0 225 225;" xml:space="preserve">
<style type="text/css">
	.st0{fill:#DD6470;}
	.st1{fill:#EF6A73;}
	.st2{fill:#5F148F;}
</style>
<g id="Layer_1">
</g>
<g id="Layer_4">
</g>
<g id="Layer_3">
	<path d="M0,12c2.6-3.8,5.9-4.1,9.9-2.1c6.6,3.1,13.3,6.1,20.1,8.7c5.3,2,7.9,5.7,8.9,11c0.9,4.7,0.7,11.3,3.6,13.5
		c3.2,2.5,9.5,1,14.4,1c51.2,0,102.5,0.1,153.7-0.1c6.9,0,11.9,2.1,14.4,8.9c0,1.7,0,3.3,0,5c-3,13.8-6,27.5-8.9,41.3
		c-2.2,10.4-4.2,20.8-6.4,31.2c-1.7,7.9-5.1,10.6-13.2,10.6c-42.6,0-85.3,0-127.9,0c-2,0-4,0-6.7,0c1.1,5.6,2.2,10.6,3.3,15.9
		c2.4,0,4.4,0,6.3,0c40.6,0,81.3,0,121.9,0c1.5,0,3-0.1,4.5,0.1c3.2,0.5,5.6,2.7,4.8,5.7c-0.5,2-3.2,3.6-5.1,5.1
		c-0.8,0.6-2.3,0.1-3.4,0.1c-42.1,0-84.3,0-126.4,0c-8.8,0-12-2.7-13.9-11.6c-8.4-40.7-16.8-81.4-25-122.1c-0.7-3.7-2.4-5.7-5.8-7.1
		c-5.9-2.2-11.7-4.8-17.4-7.4c-2-0.9-3.7-2.6-5.6-3.9C0,14.6,0,13.3,0,12z M44.1,55.2c4.9,23.8,9.8,47,14.3,70.3
		c0.8,4.1,2.6,4.8,6.3,4.8c42.8-0.1,85.6-0.1,128.5-0.1c1.8,0,3.6-0.1,5.4-0.2c5.2-25.1,10.2-49.8,15.4-74.8
		C157.2,55.2,100.9,55.2,44.1,55.2z"/>
	<path d="M183.3,197.1c0,10.9-8.8,19.4-19.8,19.3c-10.8-0.1-19.6-9-19.5-19.9c0.1-10.6,9.3-19.6,20-19.5
		C174.8,177.2,183.3,186.1,183.3,197.1z M163.8,205.7c4.7-0.1,8.9-4.5,8.8-9.1c-0.2-4.8-4.4-8.7-9.2-8.5c-4.7,0.2-8.4,4.1-8.4,8.7
		C155,201.6,159.1,205.8,163.8,205.7z"/>
	<path d="M94.5,216.4c-11,0.1-19.6-8.3-19.8-19.4c-0.1-10.9,8.5-19.8,19.3-20c10.7-0.2,19.8,8.8,19.9,19.6
		C114.2,207.4,105.4,216.3,94.5,216.4z M94.5,188c-4.9-0.1-8.9,3.9-8.9,8.7c0,4.8,4.2,8.9,8.9,8.9c4.6,0,8.5-3.9,8.6-8.6
		C103.1,192.1,99.4,188.1,94.5,188z"/>
	<path d="M129.3,72.9c12.5,0,25,0.1,37.5,0c4,0,7.2,1.1,7.1,5.6c-0.1,4.2-3.2,5.4-6.9,5.4c-25.3,0-50.6,0-76,0
		c-3.8,0-6.9-1.2-6.9-5.4c0-4.5,3.2-5.6,7.2-5.6C104,73,116.6,72.9,129.3,72.9z"/>
	<path d="M129,101.7c11.2,0,22.3,0.1,33.5,0c4,0,7.3,1.1,7.2,5.5c-0.1,4.2-3.3,5.2-7.1,5.2c-22.3-0.1-44.6-0.1-67,0
		c-4,0-7.3-1-7.2-5.6c0.1-4.2,3.3-5.2,7.1-5.1C106.7,101.8,117.8,101.7,129,101.7z"/>
</g>
<g id="Layer_2">
</g>
</svg>
